<mxfile host="app.diagrams.net" modified="2024-01-08T14:15:08.430Z" agent="Mozilla/5.0 (Macintosh; Intel Mac OS X 10_15_7) AppleWebKit/537.36 (KHTML, like Gecko) Chrome/120.0.0.0 Safari/537.36" etag="p6XTompW25Um6SOKwgOy" version="22.1.17" type="device">
  <diagram name="Page-1" id="0kIkdpO43NwfvR3UQms0">
    <mxGraphModel dx="1242" dy="700" grid="1" gridSize="10" guides="1" tooltips="1" connect="1" arrows="1" fold="1" page="1" pageScale="1" pageWidth="827" pageHeight="1169" math="0" shadow="0">
      <root>
        <mxCell id="0" />
        <mxCell id="1" parent="0" />
        <mxCell id="llL083SgbfhMbf-17VJ3-1" value="S3 File drop/Put" style="outlineConnect=0;dashed=0;verticalLabelPosition=bottom;verticalAlign=top;align=center;html=1;shape=mxgraph.aws3.s3;fillColor=#E05243;gradientColor=none;" vertex="1" parent="1">
          <mxGeometry x="61" y="280" width="76.5" height="93" as="geometry" />
        </mxCell>
        <mxCell id="llL083SgbfhMbf-17VJ3-9" style="edgeStyle=orthogonalEdgeStyle;rounded=0;orthogonalLoop=1;jettySize=auto;html=1;exitX=1;exitY=0.5;exitDx=0;exitDy=0;exitPerimeter=0;" edge="1" parent="1" source="llL083SgbfhMbf-17VJ3-1" target="llL083SgbfhMbf-17VJ3-3">
          <mxGeometry relative="1" as="geometry">
            <mxPoint x="369" y="326.5" as="sourcePoint" />
          </mxGeometry>
        </mxCell>
        <mxCell id="llL083SgbfhMbf-17VJ3-10" value="Put SQS message" style="edgeLabel;html=1;align=center;verticalAlign=middle;resizable=0;points=[];" vertex="1" connectable="0" parent="llL083SgbfhMbf-17VJ3-9">
          <mxGeometry x="-0.3043" y="1" relative="1" as="geometry">
            <mxPoint y="1" as="offset" />
          </mxGeometry>
        </mxCell>
        <mxCell id="llL083SgbfhMbf-17VJ3-21" style="edgeStyle=orthogonalEdgeStyle;rounded=0;orthogonalLoop=1;jettySize=auto;html=1;" edge="1" parent="1" source="llL083SgbfhMbf-17VJ3-3" target="llL083SgbfhMbf-17VJ3-4">
          <mxGeometry relative="1" as="geometry">
            <mxPoint x="320" y="362.5" as="sourcePoint" />
            <Array as="points">
              <mxPoint x="320" y="340" />
              <mxPoint x="320" y="450" />
              <mxPoint x="89" y="450" />
            </Array>
          </mxGeometry>
        </mxCell>
        <mxCell id="llL083SgbfhMbf-17VJ3-22" value="Trigger step fn" style="edgeLabel;html=1;align=center;verticalAlign=middle;resizable=0;points=[];" vertex="1" connectable="0" parent="llL083SgbfhMbf-17VJ3-21">
          <mxGeometry x="-0.1581" y="-1" relative="1" as="geometry">
            <mxPoint as="offset" />
          </mxGeometry>
        </mxCell>
        <mxCell id="llL083SgbfhMbf-17VJ3-16" style="edgeStyle=orthogonalEdgeStyle;rounded=0;orthogonalLoop=1;jettySize=auto;html=1;" edge="1" parent="1" source="llL083SgbfhMbf-17VJ3-3" target="llL083SgbfhMbf-17VJ3-5">
          <mxGeometry relative="1" as="geometry">
            <Array as="points">
              <mxPoint x="570" y="450" />
              <mxPoint x="431" y="450" />
            </Array>
          </mxGeometry>
        </mxCell>
        <mxCell id="llL083SgbfhMbf-17VJ3-17" value="Read message" style="edgeLabel;html=1;align=center;verticalAlign=middle;resizable=0;points=[];" vertex="1" connectable="0" parent="llL083SgbfhMbf-17VJ3-16">
          <mxGeometry x="0.3468" y="2" relative="1" as="geometry">
            <mxPoint as="offset" />
          </mxGeometry>
        </mxCell>
        <mxCell id="llL083SgbfhMbf-17VJ3-3" value="Amazon SQS" style="sketch=0;outlineConnect=0;fontColor=#232F3E;gradientColor=none;strokeColor=#ffffff;fillColor=#232F3E;dashed=0;verticalLabelPosition=middle;verticalAlign=bottom;align=center;html=1;whiteSpace=wrap;fontSize=10;fontStyle=1;spacing=3;shape=mxgraph.aws4.productIcon;prIcon=mxgraph.aws4.sqs;" vertex="1" parent="1">
          <mxGeometry x="530" y="276.5" width="80" height="100" as="geometry" />
        </mxCell>
        <mxCell id="llL083SgbfhMbf-17VJ3-12" style="edgeStyle=orthogonalEdgeStyle;rounded=0;orthogonalLoop=1;jettySize=auto;html=1;entryX=0;entryY=0.5;entryDx=0;entryDy=0;" edge="1" parent="1" source="llL083SgbfhMbf-17VJ3-4" target="llL083SgbfhMbf-17VJ3-11">
          <mxGeometry relative="1" as="geometry" />
        </mxCell>
        <mxCell id="llL083SgbfhMbf-17VJ3-4" value="Step fn workflow" style="sketch=0;points=[[0,0,0],[0.25,0,0],[0.5,0,0],[0.75,0,0],[1,0,0],[0,1,0],[0.25,1,0],[0.5,1,0],[0.75,1,0],[1,1,0],[0,0.25,0],[0,0.5,0],[0,0.75,0],[1,0.25,0],[1,0.5,0],[1,0.75,0]];outlineConnect=0;fontColor=#232F3E;fillColor=#E7157B;strokeColor=#ffffff;dashed=0;verticalLabelPosition=bottom;verticalAlign=top;align=center;html=1;fontSize=12;fontStyle=0;aspect=fixed;shape=mxgraph.aws4.resourceIcon;resIcon=mxgraph.aws4.step_functions;" vertex="1" parent="1">
          <mxGeometry x="50" y="470" width="78" height="78" as="geometry" />
        </mxCell>
        <mxCell id="llL083SgbfhMbf-17VJ3-14" style="edgeStyle=orthogonalEdgeStyle;rounded=0;orthogonalLoop=1;jettySize=auto;html=1;" edge="1" parent="1" source="llL083SgbfhMbf-17VJ3-5" target="llL083SgbfhMbf-17VJ3-6">
          <mxGeometry relative="1" as="geometry" />
        </mxCell>
        <mxCell id="llL083SgbfhMbf-17VJ3-18" style="edgeStyle=orthogonalEdgeStyle;rounded=0;orthogonalLoop=1;jettySize=auto;html=1;exitX=1;exitY=0.325;exitDx=0;exitDy=0;exitPerimeter=0;" edge="1" parent="1" source="llL083SgbfhMbf-17VJ3-5" target="llL083SgbfhMbf-17VJ3-3">
          <mxGeometry relative="1" as="geometry">
            <mxPoint x="540" y="482.5" as="sourcePoint" />
            <mxPoint x="637.5" y="350" as="targetPoint" />
            <Array as="points">
              <mxPoint x="600" y="492" />
            </Array>
          </mxGeometry>
        </mxCell>
        <mxCell id="llL083SgbfhMbf-17VJ3-19" value="loop for more message" style="edgeLabel;html=1;align=center;verticalAlign=middle;resizable=0;points=[];" vertex="1" connectable="0" parent="llL083SgbfhMbf-17VJ3-18">
          <mxGeometry x="0.3201" y="-1" relative="1" as="geometry">
            <mxPoint as="offset" />
          </mxGeometry>
        </mxCell>
        <mxCell id="llL083SgbfhMbf-17VJ3-20" style="edgeStyle=orthogonalEdgeStyle;rounded=0;orthogonalLoop=1;jettySize=auto;html=1;entryX=0.5;entryY=0;entryDx=0;entryDy=0;" edge="1" parent="1" source="llL083SgbfhMbf-17VJ3-5" target="llL083SgbfhMbf-17VJ3-15">
          <mxGeometry relative="1" as="geometry" />
        </mxCell>
        <mxCell id="llL083SgbfhMbf-17VJ3-5" value="Glue loading job&lt;br&gt;(Read SQS messages and load to aurora STG)" style="outlineConnect=0;dashed=0;verticalLabelPosition=bottom;verticalAlign=top;align=center;html=1;shape=mxgraph.aws3.glue;fillColor=#F58534;gradientColor=none;" vertex="1" parent="1">
          <mxGeometry x="390" y="459.5" width="82.5" height="99" as="geometry" />
        </mxCell>
        <mxCell id="llL083SgbfhMbf-17VJ3-6" value="" style="sketch=0;outlineConnect=0;fontColor=#232F3E;gradientColor=none;fillColor=#C925D1;strokeColor=none;dashed=0;verticalLabelPosition=bottom;verticalAlign=top;align=center;html=1;fontSize=12;fontStyle=0;aspect=fixed;pointerEvents=1;shape=mxgraph.aws4.aurora_instance;" vertex="1" parent="1">
          <mxGeometry x="630" y="548" width="78" height="78" as="geometry" />
        </mxCell>
        <mxCell id="llL083SgbfhMbf-17VJ3-11" value="Check if message exist in SQS" style="rhombus;whiteSpace=wrap;html=1;" vertex="1" parent="1">
          <mxGeometry x="228" y="469" width="80" height="80" as="geometry" />
        </mxCell>
        <mxCell id="llL083SgbfhMbf-17VJ3-13" style="edgeStyle=orthogonalEdgeStyle;rounded=0;orthogonalLoop=1;jettySize=auto;html=1;entryX=0;entryY=0.5;entryDx=0;entryDy=0;entryPerimeter=0;" edge="1" parent="1" source="llL083SgbfhMbf-17VJ3-11" target="llL083SgbfhMbf-17VJ3-5">
          <mxGeometry relative="1" as="geometry" />
        </mxCell>
        <mxCell id="llL083SgbfhMbf-17VJ3-24" style="edgeStyle=orthogonalEdgeStyle;rounded=0;orthogonalLoop=1;jettySize=auto;html=1;" edge="1" parent="1" source="llL083SgbfhMbf-17VJ3-15" target="llL083SgbfhMbf-17VJ3-23">
          <mxGeometry relative="1" as="geometry" />
        </mxCell>
        <mxCell id="llL083SgbfhMbf-17VJ3-15" value="Message ends" style="rhombus;whiteSpace=wrap;html=1;" vertex="1" parent="1">
          <mxGeometry x="391" y="640" width="80" height="80" as="geometry" />
        </mxCell>
        <mxCell id="llL083SgbfhMbf-17VJ3-23" value="Stop" style="ellipse;whiteSpace=wrap;html=1;aspect=fixed;fillColor=#f8cecc;strokeColor=#b85450;" vertex="1" parent="1">
          <mxGeometry x="390.5" y="760" width="80" height="80" as="geometry" />
        </mxCell>
        <mxCell id="llL083SgbfhMbf-17VJ3-26" style="edgeStyle=orthogonalEdgeStyle;rounded=0;orthogonalLoop=1;jettySize=auto;html=1;" edge="1" parent="1" source="llL083SgbfhMbf-17VJ3-25" target="llL083SgbfhMbf-17VJ3-1">
          <mxGeometry relative="1" as="geometry" />
        </mxCell>
        <mxCell id="llL083SgbfhMbf-17VJ3-25" value="Start" style="ellipse;whiteSpace=wrap;html=1;aspect=fixed;fillColor=#d5e8d4;strokeColor=#82b366;" vertex="1" parent="1">
          <mxGeometry x="60" y="140" width="80" height="80" as="geometry" />
        </mxCell>
      </root>
    </mxGraphModel>
  </diagram>
</mxfile>
